<?xml version="1.0" encoding="us-ascii" standalone="no"?><svg xmlns="http://www.w3.org/2000/svg" xmlns:xlink="http://www.w3.org/1999/xlink" contentStyleType="text/css" height="868px" preserveAspectRatio="none" style="width:996px;height:868px;background:#FFFFFF;" version="1.1" viewBox="0 0 996 868" width="996px" zoomAndPan="magnify"><defs/><g><!--cluster PkgBlogPublic--><g id="cluster_PkgBlogPublic"><path d="M727.5,6 L829.5,6 A3.75,3.75 0 0 1 832,8.5 L839,29.6094 L986.5,29.6094 A2.5,2.5 0 0 1 989,32.1094 L989,418.5 A2.5,2.5 0 0 1 986.5,421 L727.5,421 A2.5,2.5 0 0 1 725,418.5 L725,8.5 A2.5,2.5 0 0 1 727.5,6 " fill="none" style="stroke:#000000;stroke-width:1.5;"/><line style="stroke:#000000;stroke-width:1.5;" x1="725" x2="839" y1="29.6094" y2="29.6094"/><text fill="#000000" font-family="sans-serif" font-size="14" font-weight="bold" lengthAdjust="spacing" textLength="101" x="729" y="22.5332">PkgBlogPublic</text></g><!--cluster PkgBlog--><g id="cluster_PkgBlog"><path d="M143.5,469 L202.5,469 A3.75,3.75 0 0 1 205,471.5 L212,492.6094 L375.5,492.6094 A2.5,2.5 0 0 1 378,495.1094 L378,858.5 A2.5,2.5 0 0 1 375.5,861 L143.5,861 A2.5,2.5 0 0 1 141,858.5 L141,471.5 A2.5,2.5 0 0 1 143.5,469 " fill="none" style="stroke:#000000;stroke-width:1.5;"/><line style="stroke:#000000;stroke-width:1.5;" x1="141" x2="212" y1="492.6094" y2="492.6094"/><text fill="#000000" font-family="sans-serif" font-size="14" font-weight="bold" lengthAdjust="spacing" textLength="58" x="145" y="485.5332">PkgBlog</text></g><!--cluster PkgProfile--><g id="cluster_PkgProfile"><path d="M408.5,288 L481.5,288 A3.75,3.75 0 0 1 484,290.5 L491,311.6094 L694.5,311.6094 A2.5,2.5 0 0 1 697,314.1094 L697,395.5 A2.5,2.5 0 0 1 694.5,398 L408.5,398 A2.5,2.5 0 0 1 406,395.5 L406,290.5 A2.5,2.5 0 0 1 408.5,288 " fill="none" style="stroke:#000000;stroke-width:1.5;"/><line style="stroke:#000000;stroke-width:1.5;" x1="406" x2="491" y1="311.6094" y2="311.6094"/><text fill="#000000" font-family="sans-serif" font-size="14" font-weight="bold" lengthAdjust="spacing" textLength="72" x="410" y="304.5332">PkgProfile</text></g><g id="elem_UC1"><ellipse cx="856.8923" cy="384.8785" fill="#F1F1F1" rx="87.3923" ry="19.8785" style="stroke:#181818;stroke-width:0.5;"/><text fill="#000000" font-family="sans-serif" font-size="14" lengthAdjust="spacing" textLength="132" x="790.8923" y="388.607">Consulter les articles</text></g><g id="elem_UC2"><ellipse cx="857.1904" cy="221.9381" fill="#F1F1F1" rx="95.1904" ry="21.4381" style="stroke:#181818;stroke-width:0.5;"/><text fill="#000000" font-family="sans-serif" font-size="14" lengthAdjust="spacing" textLength="150" x="782.1904" y="225.6666">Rechercher des articles</text></g><g id="elem_UC3"><ellipse cx="856.9339" cy="304.0868" fill="#F1F1F1" rx="115.9339" ry="25.5868" style="stroke:#181818;stroke-width:0.5;"/><text fill="#000000" font-family="sans-serif" font-size="14" lengthAdjust="spacing" textLength="196" x="758.9339" y="307.8153">Filtrer les articles par cat&#233;gorie</text></g><g id="elem_UC4"><ellipse cx="856.7514" cy="63.8503" fill="#F1F1F1" rx="94.7514" ry="21.3503" style="stroke:#181818;stroke-width:0.5;"/><text fill="#000000" font-family="sans-serif" font-size="14" lengthAdjust="spacing" textLength="149" x="782.2514" y="67.5788">Publier un commentaire</text></g><g id="elem_UC5"><ellipse cx="856.8945" cy="142.8789" fill="#F1F1F1" rx="97.3945" ry="21.8789" style="stroke:#181818;stroke-width:0.5;"/><text fill="#000000" font-family="sans-serif" font-size="14" lengthAdjust="spacing" textLength="155" x="779.3945" y="146.6074">Modifier un commentaire</text></g><g id="elem_UC7"><ellipse cx="259.7412" cy="675.9482" fill="#F1F1F1" rx="102.7412" ry="22.9482" style="stroke:#181818;stroke-width:0.5;"/><text fill="#000000" font-family="sans-serif" font-size="14" lengthAdjust="spacing" textLength="167" x="176.2412" y="679.6768">Mod&#233;rer les commentaires</text></g><g id="elem_UC8"><ellipse cx="259.5069" cy="751.9014" fill="#F1F1F1" rx="77.5069" ry="17.9014" style="stroke:#181818;stroke-width:0.5;"/><text fill="#000000" font-family="sans-serif" font-size="14" lengthAdjust="spacing" textLength="108" x="203.3567" y="756.216">G&#233;rer les articles</text></g><g id="elem_UC10"><ellipse cx="259.4267" cy="824.7853" fill="#F1F1F1" rx="84.4267" ry="19.2853" style="stroke:#181818;stroke-width:0.5;"/><text fill="#000000" font-family="sans-serif" font-size="14" lengthAdjust="spacing" textLength="125" x="196.9267" y="828.5139">G&#233;rerles cat&#233;gories</text></g><g id="elem_UC11"><ellipse cx="259.457" cy="521.7914" fill="#F1F1F1" rx="69.457" ry="16.2914" style="stroke:#181818;stroke-width:0.5;"/><text fill="#000000" font-family="sans-serif" font-size="14" lengthAdjust="spacing" textLength="86" x="213.457" y="526.308">G&#233;rerles tags</text></g><g id="elem_UC9"><ellipse cx="259.7239" cy="596.1448" fill="#F1F1F1" rx="98.7239" ry="22.1448" style="stroke:#181818;stroke-width:0.5;"/><text fill="#000000" font-family="sans-serif" font-size="14" lengthAdjust="spacing" textLength="158" x="180.7239" y="599.8733">Consulter les statistiques</text></g><g id="elem_UC6"><ellipse cx="551.4133" cy="352.7827" fill="#F1F1F1" rx="129.4133" ry="28.2827" style="stroke:#181818;stroke-width:0.5;"/><text fill="#000000" font-family="sans-serif" font-size="14" lengthAdjust="spacing" textLength="225" x="438.9133" y="356.5112">Cr&#233;er et g&#233;rer un compte utilisateur</text></g><!--entity UserNA--><g id="elem_UserNA"><ellipse cx="551.5" cy="202.5" fill="#F1F1F1" rx="8" ry="8" style="stroke:#181818;stroke-width:0.5;"/><path d="M551.5,210.5 L551.5,237.5 M538.5,218.5 L564.5,218.5 M551.5,237.5 L538.5,252.5 M551.5,237.5 L564.5,252.5 " fill="none" style="stroke:#181818;stroke-width:0.5;"/><text fill="#000000" font-family="sans-serif" font-size="14" lengthAdjust="spacing" textLength="160" x="471.5" y="268.5332">Utilisateur non authentifi&#233;</text></g><!--entity UserA--><g id="elem_UserA"><ellipse cx="259.5" cy="202.5" fill="#F1F1F1" rx="8" ry="8" style="stroke:#181818;stroke-width:0.5;"/><path d="M259.5,210.5 L259.5,237.5 M246.5,218.5 L272.5,218.5 M259.5,237.5 L246.5,252.5 M259.5,237.5 L272.5,252.5 " fill="none" style="stroke:#181818;stroke-width:0.5;"/><text fill="#000000" font-family="sans-serif" font-size="14" lengthAdjust="spacing" textLength="132" x="193.5" y="268.5332">Utilisateur authentifi&#233;</text></g><!--entity Admin--><g id="elem_Admin"><ellipse cx="51.5" cy="565.5" fill="#F1F1F1" rx="8" ry="8" style="stroke:#181818;stroke-width:0.5;"/><path d="M51.5,573.5 L51.5,600.5 M38.5,581.5 L64.5,581.5 M51.5,600.5 L38.5,615.5 M51.5,600.5 L64.5,615.5 " fill="none" style="stroke:#181818;stroke-width:0.5;"/><text fill="#000000" font-family="sans-serif" font-size="14" lengthAdjust="spacing" textLength="91" x="6" y="631.5332">Administrateur</text></g><!--link UserA to UserNA--><g id="link_UserA_UserNA"><path d="M325.58,233 C368.75,233 419.66,233 465.44,233 " fill="none" id="UserA-to-UserNA" style="stroke:#181818;stroke-width:1.0;"/><polygon fill="#181818" points="471.44,233,462.44,229,466.44,233,462.44,237,471.44,233" style="stroke:#181818;stroke-width:1.0;"/></g><!--link Admin to UserA--><g id="link_Admin_UserA"><path d="M66.53,556.89 C81.05,518.24 105.42,457.97 133,409 C160.9,359.46 196.0379,311.6495 223.0879,276.9995 " fill="none" id="Admin-to-UserA" style="stroke:#181818;stroke-width:1.0;"/><polygon fill="#181818" points="226.78,272.27,218.0888,276.9028,223.7032,276.2112,224.3948,281.8257,226.78,272.27" style="stroke:#181818;stroke-width:1.0;"/></g><!--link UserNA to UC1--><g id="link_UserNA_UC1"><path d="M631.65,257.43 C658.12,269.03 685.76,285.44 705,308 C716.77,321.8 703.98,334.38 717,347 C732.9,362.41 754.42,371.7 775.77,377.27 " fill="none" id="UserNA-UC1" style="stroke:#181818;stroke-width:1.0;"/></g><!--link UserNA to UC2--><g id="link_UserNA_UC2"><path d="M631.84,230.12 C672.06,228.67 721.15,226.89 763.12,225.37 " fill="none" id="UserNA-UC2" style="stroke:#181818;stroke-width:1.0;"/></g><!--link UserNA to UC3--><g id="link_UserNA_UC3"><path d="M631.84,251.56 C676.54,262.02 732.19,275.04 776.86,285.49 " fill="none" id="UserNA-UC3" style="stroke:#181818;stroke-width:1.0;"/></g><!--link UserA to UC5--><g id="link_UserA_UC5"><path d="M325.51,201.03 C347.96,191.36 373.61,181.77 398,176 C520.38,147.03 665.84,141.23 759.48,141.05 " fill="none" id="UserA-UC5" style="stroke:#181818;stroke-width:1.0;"/></g><!--link UserA to UC6--><g id="link_UserA_UC6"><path d="M325.58,259.93 C374.68,280.25 441.55,307.92 489.6,327.8 " fill="none" id="UserA-UC6" style="stroke:#181818;stroke-width:1.0;"/></g><!--link UserA to UC4--><g id="link_UserA_UC4"><path d="M303.03,193.75 C328.67,172.33 363.04,147.33 398,133 C517.22,84.11 666.65,69.39 761.75,65.22 " fill="none" id="UserA-UC4" style="stroke:#181818;stroke-width:1.0;"/></g><!--link Admin to UC1--><g id="link_Admin_UC1"><path d="M71.81,556.8 C85.55,533.22 106.29,504.8 133,489 C187.7,456.63 600.21,411.17 776.5,392.98 " fill="none" id="Admin-UC1" style="stroke:#181818;stroke-width:1.0;"/></g><!--link Admin to UC7--><g id="link_Admin_UC7"><path d="M97.07,619.66 C108.62,625.37 121.14,631.2 133,636 C153.03,644.11 175.37,651.69 195.59,658.01 " fill="none" id="Admin-UC7" style="stroke:#181818;stroke-width:1.0;"/></g><!--link Admin to UC8--><g id="link_Admin_UC8"><path d="M69.5,635.24 C83.02,662.01 104.41,696.25 133,717 C150.39,729.62 172.16,737.7 192.66,742.86 " fill="none" id="Admin-UC8" style="stroke:#181818;stroke-width:1.0;"/></g><!--link Admin to UC9--><g id="link_Admin_UC9"><path d="M97.2,596 C115.9,596 138.41,596 160.61,596 " fill="none" id="Admin-UC9" style="stroke:#181818;stroke-width:1.0;"/></g><!--link Admin to UC10--><g id="link_Admin_UC10"><path d="M58.7,635.27 C67.6,678.71 88.16,747.86 133,788 C147.81,801.26 167.15,809.78 186.21,815.24 " fill="none" id="Admin-UC10" style="stroke:#181818;stroke-width:1.0;"/></g><!--link Admin to UC11--><g id="link_Admin_UC11"><path d="M97.01,572.68 C108.55,567.12 121.09,561.5 133,557 C157.65,547.68 185.85,539.59 209.27,533.55 " fill="none" id="Admin-UC11" style="stroke:#181818;stroke-width:1.0;"/></g><!--SRC=[TP9DQiCm48NtEiNWVI1Eqlni2ccWNRM4GWwWoXDdY6AbqcXLUY2VmnUhB1D73gx1u2T_yvWt6er71ZPWgJmn56HHCPbA2AdOMCWEJ9gSPFGMAbE1z7p2Ykb8JPs1T71mQ3-sO_WesfFRua8LEROHZl_ZaOWKJ2RFD-jut1ziHNYkKfrbYP3jp-MBDkNUVsbI6Vm8uHqgwH0Ekxprp7QcSbupMj3eG5ec5JwoX9j5xXFL2MtxGl4FE8_WAscs3tPmbHQKvAOkZILCYnQnA3OOYdm5obmkOImoZ3hbdYBtReemhn5GY5-0aUGFcLStbwQ-zPZO3DAi8_fs1ySYvzE4Ycvzo26NFt0iom6m6RaCnvB31j2tRyswW6c-lJL7qlWGSTavsQOEDiXGTWcwWLqPmTztCBeA4DqcXHrgMnsesK3DHRz-xPMaOfcAXUYtCZecOfMATIesWvhfGEL2_040]--></g></svg>