<?xml version="1.0" encoding="us-ascii" standalone="no"?><svg xmlns="http://www.w3.org/2000/svg" xmlns:xlink="http://www.w3.org/1999/xlink" contentStyleType="text/css" height="868px" preserveAspectRatio="none" style="width:996px;height:868px;background:#FFFFFF;" version="1.1" viewBox="0 0 996 868" width="996px" zoomAndPan="magnify"><defs/><g><!--cluster PkgBlogPublic--><g id="cluster_PkgBlogPublic"><path d="M727.5,6 L807.5,6 A3.75,3.75 0 0 1 810,8.5 L817,29.6094 L986.5,29.6094 A2.5,2.5 0 0 1 989,32.1094 L989,418.5 A2.5,2.5 0 0 1 986.5,421 L727.5,421 A2.5,2.5 0 0 1 725,418.5 L725,8.5 A2.5,2.5 0 0 1 727.5,6 " fill="none" style="stroke:#000000;stroke-width:1.5;"/><line style="stroke:#000000;stroke-width:1.5;" x1="725" x2="817" y1="29.6094" y2="29.6094"/><text fill="#000000" font-family="sans-serif" font-size="14" font-weight="bold" lengthAdjust="spacing" textLength="79" x="729" y="22.5332">Blog Public</text></g><!--cluster PkgBlog--><g id="cluster_PkgBlog"><path d="M143.5,469 L281.5,469 A3.75,3.75 0 0 1 284,471.5 L291,492.6094 L375.5,492.6094 A2.5,2.5 0 0 1 378,495.1094 L378,858.5 A2.5,2.5 0 0 1 375.5,861 L143.5,861 A2.5,2.5 0 0 1 141,858.5 L141,471.5 A2.5,2.5 0 0 1 143.5,469 " fill="none" style="stroke:#000000;stroke-width:1.5;"/><line style="stroke:#000000;stroke-width:1.5;" x1="141" x2="291" y1="492.6094" y2="492.6094"/><text fill="#000000" font-family="sans-serif" font-size="14" font-weight="bold" lengthAdjust="spacing" textLength="137" x="145" y="485.5332">Blog Administration</text></g><!--cluster PkgProfile--><g id="cluster_PkgProfile"><path d="M408.5,288 L522.5,288 A3.75,3.75 0 0 1 525,290.5 L532,311.6094 L694.5,311.6094 A2.5,2.5 0 0 1 697,314.1094 L697,395.5 A2.5,2.5 0 0 1 694.5,398 L408.5,398 A2.5,2.5 0 0 1 406,395.5 L406,290.5 A2.5,2.5 0 0 1 408.5,288 " fill="none" style="stroke:#000000;stroke-width:1.5;"/><line style="stroke:#000000;stroke-width:1.5;" x1="406" x2="532" y1="311.6094" y2="311.6094"/><text fill="#000000" font-family="sans-serif" font-size="14" font-weight="bold" lengthAdjust="spacing" textLength="113" x="410" y="304.5332">Profil Utilisateur</text></g><g id="elem_UC1"><ellipse cx="856.8923" cy="384.8785" fill="#F1F1F1" rx="87.3923" ry="19.8785" style="stroke:#181818;stroke-width:0.5;"/><text fill="#000000" font-family="sans-serif" font-size="14" lengthAdjust="spacing" textLength="132" x="790.8923" y="388.607">Consulter les articles</text></g><g id="elem_UC2"><ellipse cx="857.1904" cy="221.9381" fill="#F1F1F1" rx="95.1904" ry="21.4381" style="stroke:#181818;stroke-width:0.5;"/><text fill="#000000" font-family="sans-serif" font-size="14" lengthAdjust="spacing" textLength="150" x="782.1904" y="225.6666">Rechercher des articles</text></g><g id="elem_UC3"><ellipse cx="856.9339" cy="304.0868" fill="#F1F1F1" rx="115.9339" ry="25.5868" style="stroke:#181818;stroke-width:0.5;"/><text fill="#000000" font-family="sans-serif" font-size="14" lengthAdjust="spacing" textLength="196" x="758.9339" y="307.8153">Filtrer les articles par cat&#233;gorie</text></g><g id="elem_UC4"><ellipse cx="856.7514" cy="63.8503" fill="#F1F1F1" rx="94.7514" ry="21.3503" style="stroke:#181818;stroke-width:0.5;"/><text fill="#000000" font-family="sans-serif" font-size="14" lengthAdjust="spacing" textLength="149" x="782.2514" y="67.5788">Publier un commentaire</text></g><g id="elem_UC5"><ellipse cx="856.8945" cy="142.8789" fill="#F1F1F1" rx="97.3945" ry="21.8789" style="stroke:#181818;stroke-width:0.5;"/><text fill="#000000" font-family="sans-serif" font-size="14" lengthAdjust="spacing" textLength="155" x="779.3945" y="146.6074">Modifier un commentaire</text></g><g id="elem_UC7"><ellipse cx="259.7412" cy="675.9482" fill="#F1F1F1" rx="102.7412" ry="22.9482" style="stroke:#181818;stroke-width:0.5;"/><text fill="#000000" font-family="sans-serif" font-size="14" lengthAdjust="spacing" textLength="167" x="176.2412" y="679.6768">Mod&#233;rer les commentaires</text></g><g id="elem_UC8"><ellipse cx="259.5069" cy="751.9014" fill="#F1F1F1" rx="77.5069" ry="17.9014" style="stroke:#181818;stroke-width:0.5;"/><text fill="#000000" font-family="sans-serif" font-size="14" lengthAdjust="spacing" textLength="108" x="203.3567" y="756.216">G&#233;rer les articles</text></g><g id="elem_UC10"><ellipse cx="259.6163" cy="825.1233" fill="#F1F1F1" rx="86.1163" ry="19.6233" style="stroke:#181818;stroke-width:0.5;"/><text fill="#000000" font-family="sans-serif" font-size="14" lengthAdjust="spacing" textLength="129" x="195.1163" y="828.8518">G&#233;rer les cat&#233;gories</text></g><g id="elem_UC11"><ellipse cx="259.3567" cy="522.0713" fill="#F1F1F1" rx="70.8567" ry="16.5713" style="stroke:#181818;stroke-width:0.5;"/><text fill="#000000" font-family="sans-serif" font-size="14" lengthAdjust="spacing" textLength="90" x="211.3567" y="526.5879">G&#233;rer les tags</text></g><g id="elem_UC9"><ellipse cx="259.7239" cy="596.1448" fill="#F1F1F1" rx="98.7239" ry="22.1448" style="stroke:#181818;stroke-width:0.5;"/><text fill="#000000" font-family="sans-serif" font-size="14" lengthAdjust="spacing" textLength="158" x="180.7239" y="599.8733">Consulter les statistiques</text></g><g id="elem_UC6"><ellipse cx="551.4133" cy="352.7827" fill="#F1F1F1" rx="129.4133" ry="28.2827" style="stroke:#181818;stroke-width:0.5;"/><text fill="#000000" font-family="sans-serif" font-size="14" lengthAdjust="spacing" textLength="225" x="438.9133" y="356.5112">Cr&#233;er et g&#233;rer un compte utilisateur</text></g><!--entity UserNA--><g id="elem_UserNA"><ellipse cx="551.5" cy="202.5" fill="#F1F1F1" rx="8" ry="8" style="stroke:#181818;stroke-width:0.5;"/><path d="M551.5,210.5 L551.5,237.5 M538.5,218.5 L564.5,218.5 M551.5,237.5 L538.5,252.5 M551.5,237.5 L564.5,252.5 " fill="none" style="stroke:#181818;stroke-width:0.5;"/><text fill="#000000" font-family="sans-serif" font-size="14" lengthAdjust="spacing" textLength="160" x="471.5" y="268.5332">Utilisateur non authentifi&#233;</text></g><!--entity UserA--><g id="elem_UserA"><ellipse cx="259.5" cy="202.5" fill="#F1F1F1" rx="8" ry="8" style="stroke:#181818;stroke-width:0.5;"/><path d="M259.5,210.5 L259.5,237.5 M246.5,218.5 L272.5,218.5 M259.5,237.5 L246.5,252.5 M259.5,237.5 L272.5,252.5 " fill="none" style="stroke:#181818;stroke-width:0.5;"/><text fill="#000000" font-family="sans-serif" font-size="14" lengthAdjust="spacing" textLength="132" x="193.5" y="268.5332">Utilisateur authentifi&#233;</text></g><!--entity Admin--><g id="elem_Admin"><ellipse cx="51.5" cy="565.5" fill="#F1F1F1" rx="8" ry="8" style="stroke:#181818;stroke-width:0.5;"/><path d="M51.5,573.5 L51.5,600.5 M38.5,581.5 L64.5,581.5 M51.5,600.5 L38.5,615.5 M51.5,600.5 L64.5,615.5 " fill="none" style="stroke:#181818;stroke-width:0.5;"/><text fill="#000000" font-family="sans-serif" font-size="14" lengthAdjust="spacing" textLength="91" x="6" y="631.5332">Administrateur</text></g><!--link UserA to UserNA--><g id="link_UserA_UserNA"><path d="M325.58,233 C368.75,233 419.66,233 465.44,233 " fill="none" id="UserA-to-UserNA" style="stroke:#181818;stroke-width:1.0;"/><polygon fill="#181818" points="471.44,233,462.44,229,466.44,233,462.44,237,471.44,233" style="stroke:#181818;stroke-width:1.0;"/></g><!--link Admin to UserA--><g id="link_Admin_UserA"><path d="M66.53,556.89 C81.05,518.24 105.42,457.97 133,409 C160.9,359.46 196.0379,311.6495 223.0879,276.9995 " fill="none" id="Admin-to-UserA" style="stroke:#181818;stroke-width:1.0;"/><polygon fill="#181818" points="226.78,272.27,218.0888,276.9028,223.7032,276.2112,224.3948,281.8257,226.78,272.27" style="stroke:#181818;stroke-width:1.0;"/></g><!--link UserNA to UC1--><g id="link_UserNA_UC1"><path d="M631.65,257.43 C658.12,269.03 685.76,285.44 705,308 C716.77,321.8 703.98,334.38 717,347 C732.9,362.41 748.6143,370.1854 769.9643,375.7554 " fill="none" id="UserNA-to-UC1" style="stroke:#181818;stroke-width:1.0;"/><polygon fill="#181818" points="775.77,377.27,768.0712,371.1276,770.9319,376.0078,766.0517,378.8685,775.77,377.27" style="stroke:#181818;stroke-width:1.0;"/></g><!--link UserNA to UC2--><g id="link_UserNA_UC2"><path d="M631.84,230.12 C672.06,228.67 715.1539,227.1072 757.1239,225.5872 " fill="none" id="UserNA-to-UC2" style="stroke:#181818;stroke-width:1.0;"/><polygon fill="#181818" points="763.12,225.37,753.9811,221.6984,758.1233,225.551,754.2707,229.6931,763.12,225.37" style="stroke:#181818;stroke-width:1.0;"/></g><!--link UserNA to UC3--><g id="link_UserNA_UC3"><path d="M631.84,251.56 C676.54,262.02 726.3477,273.6733 771.0177,284.1233 " fill="none" id="UserNA-to-UC3" style="stroke:#181818;stroke-width:1.0;"/><polygon fill="#181818" points="776.86,285.49,769.0078,279.5451,771.9914,284.3511,767.1855,287.3348,776.86,285.49" style="stroke:#181818;stroke-width:1.0;"/></g><!--link UserA to UC4--><g id="link_UserA_UC4"><path d="M303.03,193.75 C328.67,172.33 363.04,147.33 398,133 C517.22,84.11 660.6558,69.6528 755.7558,65.4828 " fill="none" id="UserA-to-UC4" style="stroke:#181818;stroke-width:1.0;"/><polygon fill="#181818" points="761.75,65.22,752.5834,61.6181,756.7548,65.439,752.9339,69.6104,761.75,65.22" style="stroke:#181818;stroke-width:1.0;"/></g><!--link UserA to UC5--><g id="link_UserA_UC5"><path d="M325.51,201.03 C347.96,191.36 373.61,181.77 398,176 C520.38,147.03 659.84,141.2415 753.48,141.0615 " fill="none" id="UserA-to-UC5" style="stroke:#181818;stroke-width:1.0;"/><polygon fill="#181818" points="759.48,141.05,750.4723,137.0673,754.48,141.0596,750.4877,145.0673,759.48,141.05" style="stroke:#181818;stroke-width:1.0;"/></g><!--link UserA to UC6--><g id="link_UserA_UC6"><path d="M325.58,259.93 C374.68,280.25 436.0058,305.6262 484.0558,325.5062 " fill="none" id="UserA-to-UC6" style="stroke:#181818;stroke-width:1.0;"/><polygon fill="#181818" points="489.6,327.8,482.8129,320.6631,484.9798,325.8885,479.7545,328.0554,489.6,327.8" style="stroke:#181818;stroke-width:1.0;"/></g><!--link Admin to UC1--><g id="link_Admin_UC1"><path d="M71.81,556.8 C85.55,533.22 106.29,504.8 133,489 C187.7,456.63 594.2417,411.7858 770.5317,393.5958 " fill="none" id="Admin-to-UC1" style="stroke:#181818;stroke-width:1.0;"/><polygon fill="#181818" points="776.5,392.98,767.137,389.9249,771.5264,393.4932,767.9581,397.8826,776.5,392.98" style="stroke:#181818;stroke-width:1.0;"/></g><!--link Admin to UC7--><g id="link_Admin_UC7"><path d="M97.07,619.66 C108.62,625.37 121.14,631.2 133,636 C153.03,644.11 169.6432,649.9 189.8632,656.22 " fill="none" id="Admin-to-UC7" style="stroke:#181818;stroke-width:1.0;"/><polygon fill="#181818" points="195.59,658.01,188.1931,651.5072,190.8177,656.5184,185.8065,659.1429,195.59,658.01" style="stroke:#181818;stroke-width:1.0;"/></g><!--link Admin to UC8--><g id="link_Admin_UC8"><path d="M69.5,635.24 C83.02,662.01 104.41,696.25 133,717 C150.39,729.62 166.3415,736.2354 186.8415,741.3954 " fill="none" id="Admin-to-UC8" style="stroke:#181818;stroke-width:1.0;"/><polygon fill="#181818" points="192.66,742.86,184.9086,736.7842,187.8112,741.6395,182.9559,744.5422,192.66,742.86" style="stroke:#181818;stroke-width:1.0;"/></g><!--link Admin to UC9--><g id="link_Admin_UC9"><path d="M97.2,596 C115.9,596 132.41,596 154.61,596 " fill="none" id="Admin-to-UC9" style="stroke:#181818;stroke-width:1.0;"/><polygon fill="#181818" points="160.61,596,151.61,592,155.61,596,151.61,600,160.61,596" style="stroke:#181818;stroke-width:1.0;"/></g><!--link Admin to UC10--><g id="link_Admin_UC10"><path d="M58.7,635.27 C67.6,678.71 88.16,747.86 133,788 C147.55,801.03 160.7312,807.796 179.4712,813.276 " fill="none" id="Admin-to-UC10" style="stroke:#181818;stroke-width:1.0;"/><polygon fill="#181818" points="185.23,814.96,177.7144,808.5948,180.431,813.5567,175.4691,816.2732,185.23,814.96" style="stroke:#181818;stroke-width:1.0;"/></g><!--link Admin to UC11--><g id="link_Admin_UC11"><path d="M97.01,572.68 C108.55,567.12 121.09,561.5 133,557 C157.54,547.72 179.8004,541.1596 203.1604,535.1296 " fill="none" id="Admin-to-UC11" style="stroke:#181818;stroke-width:1.0;"/><polygon fill="#181818" points="208.97,533.63,199.2559,532.0064,204.1287,534.8797,201.2554,539.7525,208.97,533.63" style="stroke:#181818;stroke-width:1.0;"/></g><!--SRC=[VP9DQiCm48NtEiNWVI3EVpQ5rD2kMa8X1r3bYIEYMAaqNfKUoEVmnIhBE97ij0Q3t-YRP-bf51u9I8EHnOaWbmO5ILqonWLf0yc1f9AM4rO6Ibq2h-Y49ScZREe4k8M3HVE-UuG_H6_aBh_8Kbeo7lRhliGy1PF9Ks_joxV2Zh4h5sTU82JFIXUmhpwL5DvWVoxQKbU1RmRkgImARX4EMTeYIQPBMob20mejS4DIk8zamCuy-u7YXAPz8Vy7ddluHIeo0rkuSWE2KrCNsaWSDYvyez-kQwnA4FfoSP5nTmr3TkdPDvsxF1_0FyDOWdpTVORnZ89PzzPDtHyWy1uTT-FnrplyLoxfT4ZUenZ3wH0cNeoexOCxjEIEQ4b-LQrh6CJUwADK40nbdqEtWgCeLfs_QMfdZWH5jvqkxIiXL85N-wzkHhlfpD9Opc8vP-5iPuj8BIErOk7KEzzGhIErYTGsxfl6CcM_]--></g></svg>